<mxfile host="app.diagrams.net" modified="2023-09-22T11:42:34.675Z" agent="Mozilla/5.0 (Windows NT 10.0; Win64; x64) AppleWebKit/537.36 (KHTML, like Gecko) Chrome/116.0.0.0 Safari/537.36" etag="-xWqEYiJ-LqO5G9chEVc" version="21.8.0" type="device">
  <diagram name="Страница — 1" id="-FnVSi9iPEGP6rG2yboz">
    <mxGraphModel dx="932" dy="1933" grid="1" gridSize="10" guides="1" tooltips="1" connect="1" arrows="1" fold="1" page="1" pageScale="1" pageWidth="827" pageHeight="1169" math="0" shadow="0">
      <root>
        <mxCell id="0" />
        <mxCell id="1" parent="0" />
        <mxCell id="jmEXxtUV6D5Zdr0_3pXb-8" value="" style="edgeStyle=orthogonalEdgeStyle;rounded=0;orthogonalLoop=1;jettySize=auto;html=1;" edge="1" parent="1" source="jmEXxtUV6D5Zdr0_3pXb-1" target="jmEXxtUV6D5Zdr0_3pXb-2">
          <mxGeometry relative="1" as="geometry" />
        </mxCell>
        <mxCell id="jmEXxtUV6D5Zdr0_3pXb-1" value="" style="ellipse;whiteSpace=wrap;html=1;aspect=fixed;" vertex="1" parent="1">
          <mxGeometry x="70" y="110" width="60" height="60" as="geometry" />
        </mxCell>
        <mxCell id="jmEXxtUV6D5Zdr0_3pXb-10" value="" style="edgeStyle=orthogonalEdgeStyle;rounded=0;orthogonalLoop=1;jettySize=auto;html=1;" edge="1" parent="1" source="jmEXxtUV6D5Zdr0_3pXb-2" target="jmEXxtUV6D5Zdr0_3pXb-9">
          <mxGeometry relative="1" as="geometry" />
        </mxCell>
        <mxCell id="jmEXxtUV6D5Zdr0_3pXb-2" value="ВВОД НАЗВАНИЯ ПРОФЕССИИ" style="rounded=1;whiteSpace=wrap;html=1;" vertex="1" parent="1">
          <mxGeometry x="180" y="110" width="120" height="60" as="geometry" />
        </mxCell>
        <mxCell id="jmEXxtUV6D5Zdr0_3pXb-3" value="" style="ellipse;whiteSpace=wrap;html=1;aspect=fixed;" vertex="1" parent="1">
          <mxGeometry x="540" y="110" width="60" height="60" as="geometry" />
        </mxCell>
        <mxCell id="jmEXxtUV6D5Zdr0_3pXb-6" value="&lt;h1&gt;БП2.1.2 СОЗДАНИЕ ПЕРЕЧНЯ НАВЫКОВ&lt;/h1&gt;" style="text;html=1;strokeColor=none;fillColor=none;spacing=5;spacingTop=-20;whiteSpace=wrap;overflow=hidden;rounded=0;" vertex="1" parent="1">
          <mxGeometry y="240" width="265" height="120" as="geometry" />
        </mxCell>
        <mxCell id="jmEXxtUV6D5Zdr0_3pXb-7" value="&lt;h1&gt;БП2.1.1 СОЗДАНИЕ ПЕРЕЧНЯ ПРОФЕССИЙ&lt;/h1&gt;" style="text;html=1;strokeColor=none;fillColor=none;spacing=5;spacingTop=-20;whiteSpace=wrap;overflow=hidden;rounded=0;" vertex="1" parent="1">
          <mxGeometry width="270" height="120" as="geometry" />
        </mxCell>
        <mxCell id="jmEXxtUV6D5Zdr0_3pXb-11" value="" style="edgeStyle=orthogonalEdgeStyle;rounded=0;orthogonalLoop=1;jettySize=auto;html=1;" edge="1" parent="1" source="jmEXxtUV6D5Zdr0_3pXb-9" target="jmEXxtUV6D5Zdr0_3pXb-3">
          <mxGeometry relative="1" as="geometry" />
        </mxCell>
        <mxCell id="jmEXxtUV6D5Zdr0_3pXb-9" value="СОХРАНЕНИЕ" style="rounded=1;whiteSpace=wrap;html=1;" vertex="1" parent="1">
          <mxGeometry x="354" y="110" width="120" height="60" as="geometry" />
        </mxCell>
        <mxCell id="jmEXxtUV6D5Zdr0_3pXb-12" value="СТРАНИЦА СОЗДАНИЯ ПРОФЕССИИ" style="text;html=1;strokeColor=none;fillColor=none;align=center;verticalAlign=middle;whiteSpace=wrap;rounded=0;" vertex="1" parent="1">
          <mxGeometry x="70" y="190" width="60" height="30" as="geometry" />
        </mxCell>
        <mxCell id="jmEXxtUV6D5Zdr0_3pXb-15" value="" style="edgeStyle=orthogonalEdgeStyle;rounded=0;orthogonalLoop=1;jettySize=auto;html=1;" edge="1" parent="1" source="jmEXxtUV6D5Zdr0_3pXb-14" target="jmEXxtUV6D5Zdr0_3pXb-9">
          <mxGeometry relative="1" as="geometry" />
        </mxCell>
        <mxCell id="jmEXxtUV6D5Zdr0_3pXb-14" value="ПО" style="text;html=1;strokeColor=none;fillColor=none;align=center;verticalAlign=middle;whiteSpace=wrap;rounded=0;" vertex="1" parent="1">
          <mxGeometry x="384" y="200" width="60" height="30" as="geometry" />
        </mxCell>
        <mxCell id="jmEXxtUV6D5Zdr0_3pXb-16" value="" style="ellipse;whiteSpace=wrap;html=1;aspect=fixed;" vertex="1" parent="1">
          <mxGeometry x="742.5" y="455" width="55" height="55" as="geometry" />
        </mxCell>
        <mxCell id="jmEXxtUV6D5Zdr0_3pXb-25" value="" style="edgeStyle=orthogonalEdgeStyle;rounded=0;orthogonalLoop=1;jettySize=auto;html=1;" edge="1" parent="1" source="jmEXxtUV6D5Zdr0_3pXb-17" target="jmEXxtUV6D5Zdr0_3pXb-18">
          <mxGeometry relative="1" as="geometry" />
        </mxCell>
        <mxCell id="jmEXxtUV6D5Zdr0_3pXb-17" value="" style="ellipse;whiteSpace=wrap;html=1;aspect=fixed;" vertex="1" parent="1">
          <mxGeometry x="70" y="355" width="60" height="60" as="geometry" />
        </mxCell>
        <mxCell id="jmEXxtUV6D5Zdr0_3pXb-27" value="" style="edgeStyle=orthogonalEdgeStyle;rounded=0;orthogonalLoop=1;jettySize=auto;html=1;" edge="1" parent="1" source="jmEXxtUV6D5Zdr0_3pXb-18" target="jmEXxtUV6D5Zdr0_3pXb-21">
          <mxGeometry relative="1" as="geometry" />
        </mxCell>
        <mxCell id="jmEXxtUV6D5Zdr0_3pXb-18" value="ВВОД НАЗВАНИЯ НАВЫКА" style="rounded=1;whiteSpace=wrap;html=1;" vertex="1" parent="1">
          <mxGeometry x="170" y="360" width="110" height="50" as="geometry" />
        </mxCell>
        <mxCell id="jmEXxtUV6D5Zdr0_3pXb-29" value="" style="edgeStyle=orthogonalEdgeStyle;rounded=0;orthogonalLoop=1;jettySize=auto;html=1;" edge="1" parent="1" source="jmEXxtUV6D5Zdr0_3pXb-19" target="jmEXxtUV6D5Zdr0_3pXb-26">
          <mxGeometry relative="1" as="geometry" />
        </mxCell>
        <mxCell id="jmEXxtUV6D5Zdr0_3pXb-19" value="ВВОД ВОПРОСА" style="rounded=1;whiteSpace=wrap;html=1;" vertex="1" parent="1">
          <mxGeometry x="444" y="360" width="110" height="50" as="geometry" />
        </mxCell>
        <mxCell id="jmEXxtUV6D5Zdr0_3pXb-53" value="" style="edgeStyle=orthogonalEdgeStyle;rounded=0;orthogonalLoop=1;jettySize=auto;html=1;" edge="1" parent="1" source="jmEXxtUV6D5Zdr0_3pXb-20" target="jmEXxtUV6D5Zdr0_3pXb-47">
          <mxGeometry relative="1" as="geometry" />
        </mxCell>
        <mxCell id="jmEXxtUV6D5Zdr0_3pXb-20" value="СОХРАНЕНИЕ" style="rounded=1;whiteSpace=wrap;html=1;" vertex="1" parent="1">
          <mxGeometry x="530" y="630" width="120" height="60" as="geometry" />
        </mxCell>
        <mxCell id="jmEXxtUV6D5Zdr0_3pXb-28" value="" style="edgeStyle=orthogonalEdgeStyle;rounded=0;orthogonalLoop=1;jettySize=auto;html=1;" edge="1" parent="1" source="jmEXxtUV6D5Zdr0_3pXb-21" target="jmEXxtUV6D5Zdr0_3pXb-19">
          <mxGeometry relative="1" as="geometry" />
        </mxCell>
        <mxCell id="jmEXxtUV6D5Zdr0_3pXb-21" value="СОХРАНЕНИЕ" style="rounded=1;whiteSpace=wrap;html=1;" vertex="1" parent="1">
          <mxGeometry x="304" y="360" width="110" height="50" as="geometry" />
        </mxCell>
        <mxCell id="jmEXxtUV6D5Zdr0_3pXb-52" value="" style="edgeStyle=orthogonalEdgeStyle;rounded=0;orthogonalLoop=1;jettySize=auto;html=1;" edge="1" parent="1" source="jmEXxtUV6D5Zdr0_3pXb-22" target="jmEXxtUV6D5Zdr0_3pXb-20">
          <mxGeometry relative="1" as="geometry" />
        </mxCell>
        <mxCell id="jmEXxtUV6D5Zdr0_3pXb-22" value="ЗАПОЛНИТЬ БАЛЫ НАВЫКОВ" style="rounded=1;whiteSpace=wrap;html=1;" vertex="1" parent="1">
          <mxGeometry x="335" y="630" width="120" height="60" as="geometry" />
        </mxCell>
        <mxCell id="jmEXxtUV6D5Zdr0_3pXb-44" value="" style="edgeStyle=orthogonalEdgeStyle;rounded=0;orthogonalLoop=1;jettySize=auto;html=1;" edge="1" parent="1" source="jmEXxtUV6D5Zdr0_3pXb-24" target="jmEXxtUV6D5Zdr0_3pXb-16">
          <mxGeometry relative="1" as="geometry" />
        </mxCell>
        <mxCell id="jmEXxtUV6D5Zdr0_3pXb-24" value="&lt;font style=&quot;font-size: 8px;&quot;&gt;ПРОВЕРКА ОПЕРАЦИИ&lt;/font&gt;" style="rhombus;whiteSpace=wrap;html=1;" vertex="1" parent="1">
          <mxGeometry x="730" y="345" width="80" height="80" as="geometry" />
        </mxCell>
        <mxCell id="jmEXxtUV6D5Zdr0_3pXb-30" value="" style="edgeStyle=orthogonalEdgeStyle;rounded=0;orthogonalLoop=1;jettySize=auto;html=1;" edge="1" parent="1" source="jmEXxtUV6D5Zdr0_3pXb-26" target="jmEXxtUV6D5Zdr0_3pXb-24">
          <mxGeometry relative="1" as="geometry" />
        </mxCell>
        <mxCell id="jmEXxtUV6D5Zdr0_3pXb-26" value="СОХРАНЕНИЕ" style="rounded=1;whiteSpace=wrap;html=1;" vertex="1" parent="1">
          <mxGeometry x="590" y="360" width="110" height="50" as="geometry" />
        </mxCell>
        <mxCell id="jmEXxtUV6D5Zdr0_3pXb-34" style="edgeStyle=orthogonalEdgeStyle;rounded=0;orthogonalLoop=1;jettySize=auto;html=1;" edge="1" parent="1" source="jmEXxtUV6D5Zdr0_3pXb-24">
          <mxGeometry relative="1" as="geometry">
            <mxPoint x="240" y="359" as="targetPoint" />
            <Array as="points">
              <mxPoint x="770" y="315" />
              <mxPoint x="200" y="315" />
              <mxPoint x="200" y="325" />
              <mxPoint x="240" y="325" />
            </Array>
          </mxGeometry>
        </mxCell>
        <mxCell id="jmEXxtUV6D5Zdr0_3pXb-39" value="" style="edgeStyle=orthogonalEdgeStyle;rounded=0;orthogonalLoop=1;jettySize=auto;html=1;" edge="1" parent="1" source="jmEXxtUV6D5Zdr0_3pXb-36" target="jmEXxtUV6D5Zdr0_3pXb-21">
          <mxGeometry relative="1" as="geometry" />
        </mxCell>
        <mxCell id="jmEXxtUV6D5Zdr0_3pXb-36" value="ПО" style="text;html=1;strokeColor=none;fillColor=none;align=center;verticalAlign=middle;whiteSpace=wrap;rounded=0;" vertex="1" parent="1">
          <mxGeometry x="330" y="435" width="60" height="30" as="geometry" />
        </mxCell>
        <mxCell id="jmEXxtUV6D5Zdr0_3pXb-40" value="" style="edgeStyle=orthogonalEdgeStyle;rounded=0;orthogonalLoop=1;jettySize=auto;html=1;" edge="1" parent="1" source="jmEXxtUV6D5Zdr0_3pXb-37" target="jmEXxtUV6D5Zdr0_3pXb-26">
          <mxGeometry relative="1" as="geometry" />
        </mxCell>
        <mxCell id="jmEXxtUV6D5Zdr0_3pXb-37" value="ПО" style="text;html=1;strokeColor=none;fillColor=none;align=center;verticalAlign=middle;whiteSpace=wrap;rounded=0;" vertex="1" parent="1">
          <mxGeometry x="615" y="435" width="60" height="30" as="geometry" />
        </mxCell>
        <mxCell id="jmEXxtUV6D5Zdr0_3pXb-38" value="СТРАНИЦА СОЗДАНИЯ НАВЫКА" style="text;html=1;strokeColor=none;fillColor=none;align=center;verticalAlign=middle;whiteSpace=wrap;rounded=0;" vertex="1" parent="1">
          <mxGeometry x="70" y="425" width="60" height="30" as="geometry" />
        </mxCell>
        <mxCell id="jmEXxtUV6D5Zdr0_3pXb-41" value="НЕТ" style="text;html=1;strokeColor=none;fillColor=none;align=center;verticalAlign=middle;whiteSpace=wrap;rounded=0;" vertex="1" parent="1">
          <mxGeometry x="720" y="315" width="60" height="30" as="geometry" />
        </mxCell>
        <mxCell id="jmEXxtUV6D5Zdr0_3pXb-42" value="ДА" style="text;html=1;strokeColor=none;fillColor=none;align=center;verticalAlign=middle;whiteSpace=wrap;rounded=0;" vertex="1" parent="1">
          <mxGeometry x="720" y="415" width="60" height="30" as="geometry" />
        </mxCell>
        <mxCell id="jmEXxtUV6D5Zdr0_3pXb-46" value="&lt;h1&gt;БП2.1.3 СОХРАНЕНИЕ МОДЕЛЬНОЙ ПРОФЕССИИ (ПРИВЯЗКА)&lt;/h1&gt;" style="text;html=1;strokeColor=none;fillColor=none;spacing=5;spacingTop=-20;whiteSpace=wrap;overflow=hidden;rounded=0;" vertex="1" parent="1">
          <mxGeometry y="510" width="335" height="120" as="geometry" />
        </mxCell>
        <mxCell id="jmEXxtUV6D5Zdr0_3pXb-47" value="" style="ellipse;whiteSpace=wrap;html=1;aspect=fixed;" vertex="1" parent="1">
          <mxGeometry x="720" y="630" width="60" height="60" as="geometry" />
        </mxCell>
        <mxCell id="jmEXxtUV6D5Zdr0_3pXb-50" value="" style="edgeStyle=orthogonalEdgeStyle;rounded=0;orthogonalLoop=1;jettySize=auto;html=1;" edge="1" parent="1" source="jmEXxtUV6D5Zdr0_3pXb-48" target="jmEXxtUV6D5Zdr0_3pXb-49">
          <mxGeometry relative="1" as="geometry" />
        </mxCell>
        <mxCell id="jmEXxtUV6D5Zdr0_3pXb-48" value="" style="ellipse;whiteSpace=wrap;html=1;aspect=fixed;" vertex="1" parent="1">
          <mxGeometry x="40" y="630" width="60" height="60" as="geometry" />
        </mxCell>
        <mxCell id="jmEXxtUV6D5Zdr0_3pXb-51" value="" style="edgeStyle=orthogonalEdgeStyle;rounded=0;orthogonalLoop=1;jettySize=auto;html=1;" edge="1" parent="1" source="jmEXxtUV6D5Zdr0_3pXb-49" target="jmEXxtUV6D5Zdr0_3pXb-22">
          <mxGeometry relative="1" as="geometry" />
        </mxCell>
        <mxCell id="jmEXxtUV6D5Zdr0_3pXb-49" value="ВЫБРАТЬ ПРОФЕССИЮ" style="rounded=1;whiteSpace=wrap;html=1;" vertex="1" parent="1">
          <mxGeometry x="145" y="630" width="120" height="60" as="geometry" />
        </mxCell>
        <mxCell id="jmEXxtUV6D5Zdr0_3pXb-55" value="" style="edgeStyle=orthogonalEdgeStyle;rounded=0;orthogonalLoop=1;jettySize=auto;html=1;" edge="1" parent="1" source="jmEXxtUV6D5Zdr0_3pXb-54" target="jmEXxtUV6D5Zdr0_3pXb-20">
          <mxGeometry relative="1" as="geometry" />
        </mxCell>
        <mxCell id="jmEXxtUV6D5Zdr0_3pXb-54" value="ПО" style="text;html=1;strokeColor=none;fillColor=none;align=center;verticalAlign=middle;whiteSpace=wrap;rounded=0;" vertex="1" parent="1">
          <mxGeometry x="560" y="710" width="60" height="30" as="geometry" />
        </mxCell>
        <mxCell id="jmEXxtUV6D5Zdr0_3pXb-56" value="СТАНИЦА СОЗДАНИЯ МОДЕЛЬНОЙ ПРОФЕССИИ" style="text;html=1;strokeColor=none;fillColor=none;align=center;verticalAlign=middle;whiteSpace=wrap;rounded=0;" vertex="1" parent="1">
          <mxGeometry x="40" y="710" width="60" height="30" as="geometry" />
        </mxCell>
        <mxCell id="jmEXxtUV6D5Zdr0_3pXb-57" value="&lt;h1&gt;БП2.1.4 РЕДАКТИРОВАНИЕ&lt;/h1&gt;" style="text;html=1;strokeColor=none;fillColor=none;spacing=5;spacingTop=-20;whiteSpace=wrap;overflow=hidden;rounded=0;" vertex="1" parent="1">
          <mxGeometry x="10" y="770" width="270" height="70" as="geometry" />
        </mxCell>
        <mxCell id="jmEXxtUV6D5Zdr0_3pXb-66" value="" style="edgeStyle=orthogonalEdgeStyle;rounded=0;orthogonalLoop=1;jettySize=auto;html=1;" edge="1" parent="1" source="jmEXxtUV6D5Zdr0_3pXb-58" target="jmEXxtUV6D5Zdr0_3pXb-60">
          <mxGeometry relative="1" as="geometry" />
        </mxCell>
        <mxCell id="jmEXxtUV6D5Zdr0_3pXb-58" value="" style="ellipse;whiteSpace=wrap;html=1;aspect=fixed;" vertex="1" parent="1">
          <mxGeometry x="40" y="870" width="60" height="60" as="geometry" />
        </mxCell>
        <mxCell id="jmEXxtUV6D5Zdr0_3pXb-59" value="" style="ellipse;whiteSpace=wrap;html=1;aspect=fixed;" vertex="1" parent="1">
          <mxGeometry x="700" y="870" width="60" height="60" as="geometry" />
        </mxCell>
        <mxCell id="jmEXxtUV6D5Zdr0_3pXb-67" value="" style="edgeStyle=orthogonalEdgeStyle;rounded=0;orthogonalLoop=1;jettySize=auto;html=1;" edge="1" parent="1" source="jmEXxtUV6D5Zdr0_3pXb-60" target="jmEXxtUV6D5Zdr0_3pXb-63">
          <mxGeometry relative="1" as="geometry" />
        </mxCell>
        <mxCell id="jmEXxtUV6D5Zdr0_3pXb-60" value="РЕДАКТИРОВАНИЕ" style="rounded=1;whiteSpace=wrap;html=1;" vertex="1" parent="1">
          <mxGeometry x="145" y="870" width="120" height="60" as="geometry" />
        </mxCell>
        <mxCell id="jmEXxtUV6D5Zdr0_3pXb-68" value="" style="edgeStyle=orthogonalEdgeStyle;rounded=0;orthogonalLoop=1;jettySize=auto;html=1;" edge="1" parent="1" source="jmEXxtUV6D5Zdr0_3pXb-63" target="jmEXxtUV6D5Zdr0_3pXb-64">
          <mxGeometry relative="1" as="geometry" />
        </mxCell>
        <mxCell id="jmEXxtUV6D5Zdr0_3pXb-63" value="СОХРАНЕНИЕ" style="rounded=1;whiteSpace=wrap;html=1;" vertex="1" parent="1">
          <mxGeometry x="335" y="870" width="120" height="60" as="geometry" />
        </mxCell>
        <mxCell id="jmEXxtUV6D5Zdr0_3pXb-69" value="" style="edgeStyle=orthogonalEdgeStyle;rounded=0;orthogonalLoop=1;jettySize=auto;html=1;" edge="1" parent="1" source="jmEXxtUV6D5Zdr0_3pXb-64" target="jmEXxtUV6D5Zdr0_3pXb-59">
          <mxGeometry relative="1" as="geometry" />
        </mxCell>
        <mxCell id="jmEXxtUV6D5Zdr0_3pXb-71" style="edgeStyle=orthogonalEdgeStyle;rounded=0;orthogonalLoop=1;jettySize=auto;html=1;entryX=0.5;entryY=0;entryDx=0;entryDy=0;" edge="1" parent="1">
          <mxGeometry relative="1" as="geometry">
            <mxPoint x="579.9966666666666" y="860.0666666666671" as="sourcePoint" />
            <mxPoint x="204.93" y="870" as="targetPoint" />
            <Array as="points">
              <mxPoint x="580" y="830" />
              <mxPoint x="205" y="830" />
            </Array>
          </mxGeometry>
        </mxCell>
        <mxCell id="jmEXxtUV6D5Zdr0_3pXb-64" value="&lt;font style=&quot;font-size: 8px;&quot;&gt;ПРОВЕРКА ОПЕРАЦИИ&lt;/font&gt;" style="rhombus;whiteSpace=wrap;html=1;" vertex="1" parent="1">
          <mxGeometry x="540" y="860" width="80" height="80" as="geometry" />
        </mxCell>
        <mxCell id="jmEXxtUV6D5Zdr0_3pXb-70" value="НЕТ" style="text;html=1;strokeColor=none;fillColor=none;align=center;verticalAlign=middle;whiteSpace=wrap;rounded=0;" vertex="1" parent="1">
          <mxGeometry x="520" y="840" width="60" height="30" as="geometry" />
        </mxCell>
        <mxCell id="jmEXxtUV6D5Zdr0_3pXb-73" value="ДА" style="text;html=1;strokeColor=none;fillColor=none;align=center;verticalAlign=middle;whiteSpace=wrap;rounded=0;" vertex="1" parent="1">
          <mxGeometry x="600" y="870" width="60" height="30" as="geometry" />
        </mxCell>
        <mxCell id="jmEXxtUV6D5Zdr0_3pXb-75" value="" style="edgeStyle=orthogonalEdgeStyle;rounded=0;orthogonalLoop=1;jettySize=auto;html=1;" edge="1" parent="1" source="jmEXxtUV6D5Zdr0_3pXb-74" target="jmEXxtUV6D5Zdr0_3pXb-63">
          <mxGeometry relative="1" as="geometry" />
        </mxCell>
        <mxCell id="jmEXxtUV6D5Zdr0_3pXb-74" value="ПО" style="text;html=1;strokeColor=none;fillColor=none;align=center;verticalAlign=middle;whiteSpace=wrap;rounded=0;" vertex="1" parent="1">
          <mxGeometry x="365" y="950" width="60" height="30" as="geometry" />
        </mxCell>
        <mxCell id="jmEXxtUV6D5Zdr0_3pXb-76" value="СТРАНИЦА РЕДАКТИРОВАНИЯ ПРОФЕССИИ" style="text;html=1;strokeColor=none;fillColor=none;align=center;verticalAlign=middle;whiteSpace=wrap;rounded=0;" vertex="1" parent="1">
          <mxGeometry x="40" y="940" width="60" height="30" as="geometry" />
        </mxCell>
        <mxCell id="jmEXxtUV6D5Zdr0_3pXb-78" style="edgeStyle=orthogonalEdgeStyle;rounded=0;orthogonalLoop=1;jettySize=auto;html=1;exitX=0.5;exitY=1;exitDx=0;exitDy=0;" edge="1" parent="1" source="jmEXxtUV6D5Zdr0_3pXb-76" target="jmEXxtUV6D5Zdr0_3pXb-76">
          <mxGeometry relative="1" as="geometry" />
        </mxCell>
        <mxCell id="jmEXxtUV6D5Zdr0_3pXb-80" style="edgeStyle=orthogonalEdgeStyle;rounded=0;orthogonalLoop=1;jettySize=auto;html=1;" edge="1" parent="1" source="jmEXxtUV6D5Zdr0_3pXb-79" target="jmEXxtUV6D5Zdr0_3pXb-2">
          <mxGeometry relative="1" as="geometry" />
        </mxCell>
        <mxCell id="jmEXxtUV6D5Zdr0_3pXb-79" value="ФОРМА" style="text;html=1;strokeColor=none;fillColor=none;align=center;verticalAlign=middle;whiteSpace=wrap;rounded=0;" vertex="1" parent="1">
          <mxGeometry x="210" y="60" width="60" height="30" as="geometry" />
        </mxCell>
        <mxCell id="jmEXxtUV6D5Zdr0_3pXb-82" value="" style="edgeStyle=orthogonalEdgeStyle;rounded=0;orthogonalLoop=1;jettySize=auto;html=1;" edge="1" parent="1" source="jmEXxtUV6D5Zdr0_3pXb-81" target="jmEXxtUV6D5Zdr0_3pXb-9">
          <mxGeometry relative="1" as="geometry" />
        </mxCell>
        <mxCell id="jmEXxtUV6D5Zdr0_3pXb-81" value="АЛГОРИТМ" style="text;html=1;strokeColor=none;fillColor=none;align=center;verticalAlign=middle;whiteSpace=wrap;rounded=0;" vertex="1" parent="1">
          <mxGeometry x="384" y="45" width="60" height="30" as="geometry" />
        </mxCell>
        <mxCell id="jmEXxtUV6D5Zdr0_3pXb-84" style="edgeStyle=orthogonalEdgeStyle;rounded=0;orthogonalLoop=1;jettySize=auto;html=1;entryX=0.5;entryY=0;entryDx=0;entryDy=0;" edge="1" parent="1" source="jmEXxtUV6D5Zdr0_3pXb-83" target="jmEXxtUV6D5Zdr0_3pXb-21">
          <mxGeometry relative="1" as="geometry" />
        </mxCell>
        <mxCell id="jmEXxtUV6D5Zdr0_3pXb-83" value="АЛГОРИТМ" style="text;html=1;strokeColor=none;fillColor=none;align=center;verticalAlign=middle;whiteSpace=wrap;rounded=0;" vertex="1" parent="1">
          <mxGeometry x="329" y="315" width="60" height="30" as="geometry" />
        </mxCell>
        <mxCell id="jmEXxtUV6D5Zdr0_3pXb-86" style="edgeStyle=orthogonalEdgeStyle;rounded=0;orthogonalLoop=1;jettySize=auto;html=1;" edge="1" parent="1" source="jmEXxtUV6D5Zdr0_3pXb-85" target="jmEXxtUV6D5Zdr0_3pXb-26">
          <mxGeometry relative="1" as="geometry" />
        </mxCell>
        <mxCell id="jmEXxtUV6D5Zdr0_3pXb-85" value="АЛГОРИТМ" style="text;html=1;strokeColor=none;fillColor=none;align=center;verticalAlign=middle;whiteSpace=wrap;rounded=0;" vertex="1" parent="1">
          <mxGeometry x="615" y="315" width="60" height="30" as="geometry" />
        </mxCell>
        <mxCell id="jmEXxtUV6D5Zdr0_3pXb-89" value="" style="edgeStyle=orthogonalEdgeStyle;rounded=0;orthogonalLoop=1;jettySize=auto;html=1;" edge="1" parent="1" source="jmEXxtUV6D5Zdr0_3pXb-87" target="jmEXxtUV6D5Zdr0_3pXb-20">
          <mxGeometry relative="1" as="geometry" />
        </mxCell>
        <mxCell id="jmEXxtUV6D5Zdr0_3pXb-87" value="АЛГОРИТМ" style="text;html=1;strokeColor=none;fillColor=none;align=center;verticalAlign=middle;whiteSpace=wrap;rounded=0;" vertex="1" parent="1">
          <mxGeometry x="560" y="570" width="60" height="30" as="geometry" />
        </mxCell>
        <mxCell id="jmEXxtUV6D5Zdr0_3pXb-91" style="edgeStyle=orthogonalEdgeStyle;rounded=0;orthogonalLoop=1;jettySize=auto;html=1;" edge="1" parent="1" source="jmEXxtUV6D5Zdr0_3pXb-90" target="jmEXxtUV6D5Zdr0_3pXb-63">
          <mxGeometry relative="1" as="geometry" />
        </mxCell>
        <mxCell id="jmEXxtUV6D5Zdr0_3pXb-90" value="АЛГОРИТМ" style="text;html=1;strokeColor=none;fillColor=none;align=center;verticalAlign=middle;whiteSpace=wrap;rounded=0;" vertex="1" parent="1">
          <mxGeometry x="365" y="830" width="60" height="30" as="geometry" />
        </mxCell>
        <mxCell id="jmEXxtUV6D5Zdr0_3pXb-94" style="edgeStyle=orthogonalEdgeStyle;rounded=0;orthogonalLoop=1;jettySize=auto;html=1;" edge="1" parent="1" source="jmEXxtUV6D5Zdr0_3pXb-92" target="jmEXxtUV6D5Zdr0_3pXb-2">
          <mxGeometry relative="1" as="geometry" />
        </mxCell>
        <mxCell id="jmEXxtUV6D5Zdr0_3pXb-92" value="АДМИН" style="text;html=1;strokeColor=none;fillColor=none;align=center;verticalAlign=middle;whiteSpace=wrap;rounded=0;" vertex="1" parent="1">
          <mxGeometry x="210" y="200" width="60" height="30" as="geometry" />
        </mxCell>
        <mxCell id="jmEXxtUV6D5Zdr0_3pXb-96" value="" style="edgeStyle=orthogonalEdgeStyle;rounded=0;orthogonalLoop=1;jettySize=auto;html=1;" edge="1" parent="1" source="jmEXxtUV6D5Zdr0_3pXb-95" target="jmEXxtUV6D5Zdr0_3pXb-18">
          <mxGeometry relative="1" as="geometry" />
        </mxCell>
        <mxCell id="jmEXxtUV6D5Zdr0_3pXb-95" value="АДМИН" style="text;html=1;strokeColor=none;fillColor=none;align=center;verticalAlign=middle;whiteSpace=wrap;rounded=0;" vertex="1" parent="1">
          <mxGeometry x="195" y="435" width="60" height="30" as="geometry" />
        </mxCell>
        <mxCell id="jmEXxtUV6D5Zdr0_3pXb-98" value="" style="edgeStyle=orthogonalEdgeStyle;rounded=0;orthogonalLoop=1;jettySize=auto;html=1;" edge="1" parent="1" source="jmEXxtUV6D5Zdr0_3pXb-97" target="jmEXxtUV6D5Zdr0_3pXb-19">
          <mxGeometry relative="1" as="geometry" />
        </mxCell>
        <mxCell id="jmEXxtUV6D5Zdr0_3pXb-97" value="АДМИН" style="text;html=1;strokeColor=none;fillColor=none;align=center;verticalAlign=middle;whiteSpace=wrap;rounded=0;" vertex="1" parent="1">
          <mxGeometry x="469" y="435" width="60" height="30" as="geometry" />
        </mxCell>
        <mxCell id="jmEXxtUV6D5Zdr0_3pXb-100" value="" style="edgeStyle=orthogonalEdgeStyle;rounded=0;orthogonalLoop=1;jettySize=auto;html=1;" edge="1" parent="1" source="jmEXxtUV6D5Zdr0_3pXb-99" target="jmEXxtUV6D5Zdr0_3pXb-19">
          <mxGeometry relative="1" as="geometry" />
        </mxCell>
        <mxCell id="jmEXxtUV6D5Zdr0_3pXb-99" value="ФОРМА" style="text;html=1;strokeColor=none;fillColor=none;align=center;verticalAlign=middle;whiteSpace=wrap;rounded=0;" vertex="1" parent="1">
          <mxGeometry x="469" y="315" width="60" height="30" as="geometry" />
        </mxCell>
        <mxCell id="jmEXxtUV6D5Zdr0_3pXb-102" value="" style="edgeStyle=orthogonalEdgeStyle;rounded=0;orthogonalLoop=1;jettySize=auto;html=1;" edge="1" parent="1" source="jmEXxtUV6D5Zdr0_3pXb-101" target="jmEXxtUV6D5Zdr0_3pXb-49">
          <mxGeometry relative="1" as="geometry" />
        </mxCell>
        <mxCell id="jmEXxtUV6D5Zdr0_3pXb-101" value="АДМИН" style="text;html=1;strokeColor=none;fillColor=none;align=center;verticalAlign=middle;whiteSpace=wrap;rounded=0;" vertex="1" parent="1">
          <mxGeometry x="175" y="710" width="60" height="30" as="geometry" />
        </mxCell>
        <mxCell id="jmEXxtUV6D5Zdr0_3pXb-104" value="" style="edgeStyle=orthogonalEdgeStyle;rounded=0;orthogonalLoop=1;jettySize=auto;html=1;" edge="1" parent="1" source="jmEXxtUV6D5Zdr0_3pXb-103" target="jmEXxtUV6D5Zdr0_3pXb-22">
          <mxGeometry relative="1" as="geometry" />
        </mxCell>
        <mxCell id="jmEXxtUV6D5Zdr0_3pXb-103" value="АДМИН" style="text;html=1;strokeColor=none;fillColor=none;align=center;verticalAlign=middle;whiteSpace=wrap;rounded=0;" vertex="1" parent="1">
          <mxGeometry x="365" y="720" width="60" height="30" as="geometry" />
        </mxCell>
        <mxCell id="jmEXxtUV6D5Zdr0_3pXb-107" value="" style="edgeStyle=orthogonalEdgeStyle;rounded=0;orthogonalLoop=1;jettySize=auto;html=1;" edge="1" parent="1" source="jmEXxtUV6D5Zdr0_3pXb-106" target="jmEXxtUV6D5Zdr0_3pXb-22">
          <mxGeometry relative="1" as="geometry" />
        </mxCell>
        <mxCell id="jmEXxtUV6D5Zdr0_3pXb-106" value="АЛГОРИТМ" style="text;html=1;strokeColor=none;fillColor=none;align=center;verticalAlign=middle;whiteSpace=wrap;rounded=0;" vertex="1" parent="1">
          <mxGeometry x="365" y="580" width="60" height="30" as="geometry" />
        </mxCell>
        <mxCell id="jmEXxtUV6D5Zdr0_3pXb-110" style="edgeStyle=orthogonalEdgeStyle;rounded=0;orthogonalLoop=1;jettySize=auto;html=1;" edge="1" parent="1" source="jmEXxtUV6D5Zdr0_3pXb-108" target="jmEXxtUV6D5Zdr0_3pXb-49">
          <mxGeometry relative="1" as="geometry" />
        </mxCell>
        <mxCell id="jmEXxtUV6D5Zdr0_3pXb-108" value="ФОРМА" style="text;html=1;strokeColor=none;fillColor=none;align=center;verticalAlign=middle;whiteSpace=wrap;rounded=0;" vertex="1" parent="1">
          <mxGeometry x="175" y="580" width="60" height="30" as="geometry" />
        </mxCell>
        <mxCell id="jmEXxtUV6D5Zdr0_3pXb-112" value="" style="edgeStyle=orthogonalEdgeStyle;rounded=0;orthogonalLoop=1;jettySize=auto;html=1;" edge="1" parent="1" source="jmEXxtUV6D5Zdr0_3pXb-111" target="jmEXxtUV6D5Zdr0_3pXb-60">
          <mxGeometry relative="1" as="geometry" />
        </mxCell>
        <mxCell id="jmEXxtUV6D5Zdr0_3pXb-111" value="АДМИН" style="text;html=1;strokeColor=none;fillColor=none;align=center;verticalAlign=middle;whiteSpace=wrap;rounded=0;" vertex="1" parent="1">
          <mxGeometry x="175" y="960" width="60" height="30" as="geometry" />
        </mxCell>
      </root>
    </mxGraphModel>
  </diagram>
</mxfile>
